<svg xmlns="http://www.w3.org/2000/svg" viewBox="0 0 347.44 163.37"><defs><style>.cls-1{fill:#58595b;}</style></defs><title>Asset 3</title><g id="Layer_2" data-name="Layer 2"><g id="Layer_1-2" data-name="Layer 1"><path class="cls-1" d="M43.58,69.41,62.21,1.29h25.2L55.92,94.86H31.24L0,1.29H25Z"/><path class="cls-1" d="M172.76,50a55.22,55.22,0,0,1-5.07,24.23,37.56,37.56,0,0,1-14.43,16.23A40.22,40.22,0,0,1,132,96.15a40.69,40.69,0,0,1-21.21-5.5A37.45,37.45,0,0,1,96.31,74.94a53.55,53.55,0,0,1-5.43-23.46V46.21q0-13.76,5.05-24.26A37.35,37.35,0,0,1,110.39,5.72,40.49,40.49,0,0,1,131.82,0,40.06,40.06,0,0,1,153,5.66a38,38,0,0,1,14.5,16.1,53.9,53.9,0,0,1,5.23,23.94Zm-22.94-3.92q0-13.94-4.66-21.17a14.94,14.94,0,0,0-13.34-7.24q-17,0-17.93,25.46L113.83,50q0,13.76,4.56,21.15T132,78.54a14.76,14.76,0,0,0,13.18-7.26q4.62-7.26,4.69-20.89Z"/><path class="cls-1" d="M254.63,18.7H226.55V94.86H204V18.7H176.42V1.29h78.21Z"/><path class="cls-1" d="M324.42,55.14H288.94V77.51h41.91V94.86H266.38V1.29H331V18.7h-42V38.43h35.48Z"/><path class="cls-1" d="M65.41,137.72a32.91,32.91,0,0,1-2.63,13.67,20,20,0,0,1-7.46,8.91,20.62,20.62,0,0,1-11.27,3.07,19.85,19.85,0,0,1-18.71-11.91,31.69,31.69,0,0,1-2.76-13.26v-3.84a32.54,32.54,0,0,1,2.67-13.57A19.74,19.74,0,0,1,44,108.64a20.62,20.62,0,0,1,11.28,3.09,19.9,19.9,0,0,1,7.52,9,33,33,0,0,1,2.63,13.66Zm-7-3.43q0-9.48-3.81-14.54A12.53,12.53,0,0,0,44,114.68a12.4,12.4,0,0,0-10.48,5.07q-3.83,5.06-3.94,14.06v3.91q0,9.19,3.86,14.44a12.48,12.48,0,0,0,10.63,5.25,12.44,12.44,0,0,0,10.54-5q3.72-5,3.84-14.21Z"/><path class="cls-1" d="M93.59,138.9q-9-2.61-13.15-6.39a12.2,12.2,0,0,1-4.12-9.34,12.89,12.89,0,0,1,5-10.41q5-4.12,13.08-4.12a21.91,21.91,0,0,1,9.79,2.12,16.21,16.21,0,0,1,6.66,5.86,15,15,0,0,1,2.35,8.16h-7.06a9.73,9.73,0,0,0-3.07-7.62q-3.07-2.77-8.67-2.77-5.19,0-8.1,2.29A7.62,7.62,0,0,0,83.42,123a6.87,6.87,0,0,0,2.76,5.52q2.76,2.25,9.4,4.12A43.73,43.73,0,0,1,106,136.79a15.7,15.7,0,0,1,5.56,5.25,13.36,13.36,0,0,1,1.81,7.06,12.45,12.45,0,0,1-5,10.37q-5.05,3.9-13.5,3.9a25,25,0,0,1-10.25-2.11,17.2,17.2,0,0,1-7.33-5.76,14,14,0,0,1-2.58-8.3H81.7a9.18,9.18,0,0,0,3.57,7.63q3.57,2.79,9.53,2.79c3.7,0,6.55-.75,8.52-2.26a7.38,7.38,0,0,0,3-6.19,7.24,7.24,0,0,0-2.74-6Q100.79,141,93.59,138.9Z"/><path class="cls-1" d="M135.78,145.85l1,7,1.5-6.33,10.54-37.17h5.92L165,146.54l1.47,6.44,1.13-7.17,8.27-36.44H183l-12.92,53.27h-6.4l-11-38.82-.84-4.06-.84,4.06-11.38,38.82h-6.4l-12.88-53.27h7Z"/><path class="cls-1" d="M222.81,138H199.73v18.87h26.81v5.75H192.71V109.37h33.47v5.75H199.73v17.15h23.08Z"/><path class="cls-1" d="M276.56,155.65a16.17,16.17,0,0,1-7.55,5.8,30.55,30.55,0,0,1-11.29,1.92,21.87,21.87,0,0,1-11.56-3.06,20.35,20.35,0,0,1-7.81-8.68,30.06,30.06,0,0,1-2.83-13.06v-4.65q0-12,5.61-18.66t15.79-6.62q8.34,0,13.42,4.26T276.56,125h-7q-2-10.6-12.59-10.6-7,0-10.7,5t-3.67,14.37v4.35q0,9,4.09,14.26a13.29,13.29,0,0,0,11.09,5.29,24.6,24.6,0,0,0,6.91-.87,10.59,10.59,0,0,0,4.9-3V141.86H257.25v-5.74h19.31Z"/><path class="cls-1" d="M331.19,137.72a32.91,32.91,0,0,1-2.64,13.67,19.92,19.92,0,0,1-7.46,8.91,20.62,20.62,0,0,1-11.27,3.07,19.88,19.88,0,0,1-18.71-11.91,31.69,31.69,0,0,1-2.76-13.26v-3.84A32.54,32.54,0,0,1,291,120.79a19.74,19.74,0,0,1,18.73-12.15A20.62,20.62,0,0,1,321,111.73a19.84,19.84,0,0,1,7.52,9,33,33,0,0,1,2.64,13.66Zm-7-3.43q0-9.48-3.81-14.54a13.53,13.53,0,0,0-21.12,0q-3.82,5.06-3.93,14.06v3.91q0,9.19,3.86,14.44a13.52,13.52,0,0,0,21.16.29q3.72-5,3.84-14.21Z"/><path class="cls-1" d="M339,159.09a4.23,4.23,0,0,1,1.05-2.93,4,4,0,0,1,3.12-1.17,4.11,4.11,0,0,1,3.17,1.17,4.16,4.16,0,0,1,1.08,2.93,3.94,3.94,0,0,1-1.08,2.82,4.2,4.2,0,0,1-3.17,1.13,3.77,3.77,0,0,1-4.17-3.95Z"/></g></g></svg>